<svg xmlns="http://www.w3.org/2000/svg" width="48" height="48" viewBox="0 0 48 48"><g class="nc-icon-wrapper"><path d="M42.7,19.418a2.905,2.905,0,0,0-3.789.875c-.139.178-3.165,4.141-4.918,6.831V7.5a2.5,2.5,0,0,0-2.757-2.487,2.6,2.6,0,0,0-2.243,2.629V19a1,1,0,0,1-2,0V3.5a2.5,2.5,0,0,0-2.757-2.487,2.6,2.6,0,0,0-2.243,2.629V19a1,1,0,0,1-2,0V4.642a2.6,2.6,0,0,0-2.242-2.629A2.5,2.5,0,0,0,14.993,4.5V19a1,1,0,0,1-2,0V9.642a2.6,2.6,0,0,0-2.242-2.629A2.5,2.5,0,0,0,7.993,9.5V28.438c0,5.312,2,10.031,5,11.92V46a1,1,0,0,0,1,1h16a1,1,0,0,0,1-1V40.75c4.792-2.125,7.875-10.208,12.582-17.542A2.739,2.739,0,0,0,42.7,19.418Z" fill="#ffd764"/> <path d="M23,36a1,1,0,0,1-1-1c0-5.514,4.935-10,11-10a1,1,0,0,1,0,2c-4.963,0-9,3.589-9,8A1,1,0,0,1,23,36Z" fill="#e2ac4b"/></g></svg>