<svg xmlns="http://www.w3.org/2000/svg" width="48" height="48" viewBox="0 0 48 48"><g class="nc-icon-wrapper"><path d="M36,4a4,4,0,0,0-4,4V7a4,4,0,0,0-8,0V6a4,4,0,0,0-8,0V9A4,4,0,0,0,8,9V31a9.391,9.391,0,0,0,6,9v4a2,2,0,0,0,2,2H32a2,2,0,0,0,2-2V40a9.391,9.391,0,0,0,6-9V8A4,4,0,0,0,36,4Z" fill="#ffd764"/> <path d="M30,35a1,1,0,0,1-1-1V29H21a5,5,0,0,1,0-10H39a1,1,0,0,1,0,2H21a3,3,0,0,0,0,6h9a1,1,0,0,1,1,1v6A1,1,0,0,1,30,35Z" fill="#e2ac4b"/> <path d="M12.5,26A4.505,4.505,0,0,1,8,21.5V21a1,1,0,0,1,2,0v.5a2.5,2.5,0,0,0,5,0V10a1,1,0,0,1,2,0V21.5A4.505,4.505,0,0,1,12.5,26Z" fill="#e2ac4b"/> <path d="M24,21a1,1,0,0,1-1-1V8a1,1,0,0,1,2,0V20A1,1,0,0,1,24,21Z" fill="#e2ac4b"/> <path d="M32,21a1,1,0,0,1-1-1V9a1,1,0,0,1,2,0V20A1,1,0,0,1,32,21Z" fill="#e2ac4b"/></g></svg>