<svg xmlns="http://www.w3.org/2000/svg" width="48" height="48" viewBox="0 0 48 48"><g class="nc-icon-wrapper"><path d="M32,1a3,3,0,0,0-3,3V20L24.882,6.165a3,3,0,1,0-5.763,1.671L22.358,19H20a3.244,3.244,0,0,0-3,2H15a3,3,0,0,0-3,3V35a7,7,0,0,0,4,6.315V46a1,1,0,0,0,1,1H31a1,1,0,0,0,1-1V40.736A6.991,6.991,0,0,0,35,35V4A3,3,0,0,0,32,1Z" fill="#ffd764"/> <path d="M22,28a1,1,0,0,1-1-1V20a1,1,0,0,1,2,0v7A1,1,0,0,1,22,28Z" fill="#e2ac4b"/> <path d="M17,28.625a1,1,0,0,1-1-1V22a1,1,0,0,1,2,0v5.625A1,1,0,0,1,17,28.625Z" fill="#e2ac4b"/> <path d="M19,28H35V26H19a4,4,0,0,0,0,8h6v4a1,1,0,0,0,2,0V33a1,1,0,0,0-1-1H19a2,2,0,0,1,0-4Z" fill="#e2ac4b"/></g></svg>